<?xml version="1.0" encoding="UTF-8"?>
<svg id="Layer_2" data-name="Layer 2" xmlns="http://www.w3.org/2000/svg" viewBox="0 0 488.14 90.5">
  <defs>
    <style>
      .cls-1 {
        fill: #2c12c1;
        stroke-width: 0px;
      }
    </style>
  </defs>
  <g id="Layer_1-2" data-name="Layer 1">
    <g>
      <g>
        <path class="cls-1" d="M41.99,29.51c-4.72,0-8.51,1.41-11.36,4.23-2.85,2.81-4.63,6.31-5.36,10.5h33.43c-.66-4.19-2.43-7.69-5.31-10.5-2.89-2.82-6.69-4.23-11.41-4.23Z"/>
        <path class="cls-1" d="M42.12,5.96C20.13,5.96,2.07,22.77.08,44.24h17.79c.4-3.18,1.28-6.15,2.68-8.88,1.97-3.84,4.78-6.88,8.46-9.14,3.67-2.26,8-3.4,12.98-3.4s9.39,1.13,13.03,3.4c3.64,2.26,6.44,5.31,8.41,9.14,1.97,3.84,2.95,8.12,2.95,12.84v2.95H25.17c.39,2.89,1.33,5.52,2.8,7.92,1.48,2.39,3.46,4.29,5.95,5.7,2.49,1.41,5.38,2.12,8.65,2.12,3.47,0,6.39-.77,8.76-2.31,2.07-1.35,3.67-3.11,4.94-5.16l6.32,3.65c-1.55,2.42-3.45,4.55-5.8,6.32-3.71,2.79-8.48,4.18-14.31,4.18-4.98,0-9.34-1.13-13.08-3.39-3.74-2.26-6.64-5.33-8.7-9.2-1.63-3.04-2.59-6.34-2.93-9.87H0c1.5,21.96,19.78,39.32,42.12,39.32s42.23-18.91,42.23-42.23S65.45,5.96,42.12,5.96Z"/>
      </g>
      <g>
        <path class="cls-1" d="M117.82,45.01l-7.35-1.64c-4.42-.99-6.48-3.02-6.48-6.38,0-4.47,4.51-7.13,8.87-7.13,7.72,0,9.86,5.01,10.44,8l.23,1.15,7.04-2.66-.19-.84c-.68-2.97-3.95-12.67-17.51-12.67-8.98,0-16.57,6.66-16.57,14.54,0,6.76,4.29,11.47,12.09,13.25l7.45,1.74c4.82,1.14,7.07,3.29,7.07,6.77,0,4.12-3.98,7.23-9.26,7.23-7.55,0-10.99-4.81-11.69-9.32l-.18-1.17-7.22,2.49.12.81c.98,6.84,7.3,14.2,18.88,14.2s17.05-7.54,17.05-14.63-4.53-11.86-12.77-13.74Z"/>
        <rect class="cls-1" x="140.99" y="23.99" width="7.79" height="48.13"/>
        <path class="cls-1" d="M144.89,0c-3.32,0-5.83,2.51-5.83,5.83s2.51,5.83,5.83,5.83,5.83-2.51,5.83-5.83-2.51-5.83-5.83-5.83Z"/>
        <path class="cls-1" d="M214.06,22.74c-6.89,0-12.51,3.22-15.73,8.91-2.51-5.56-7.92-8.91-14.64-8.91-6.2,0-10.95,2.85-13.71,6.32v-5.07h-7.69v48.13h7.79v-29.34c0-7.38,5.11-12.94,11.88-12.94,7.97,0,10.81,5.88,10.81,11.39v30.89h7.79v-29.34c0-7.38,5.11-12.94,11.87-12.94,7.97,0,10.81,5.88,10.81,11.39v30.89h7.79v-31.56c0-10.66-6.81-17.83-16.96-17.83Z"/>
        <path class="cls-1" d="M267.56,22.74c-7.43,0-12.74,3.66-15.84,7.86v-6.6h-7.69v66.51h7.79v-24.65c2.5,3.27,7.33,7.53,15.55,7.53,13,0,22.08-10.43,22.08-25.37s-9-25.27-21.89-25.27ZM266.59,29.94c8.87,0,15.07,7.43,15.07,18.07s-6.2,18.16-15.07,18.16-14.87-7.47-14.87-18.16,6.12-18.07,14.87-18.07Z"/>
        <rect class="cls-1" x="299.85" y=".29" width="7.79" height="71.83"/>
        <path class="cls-1" d="M325.03,0c-3.32,0-5.83,2.51-5.83,5.83s2.51,5.83,5.83,5.83,5.83-2.51,5.83-5.83-2.51-5.83-5.83-5.83Z"/>
        <rect class="cls-1" x="321.13" y="23.99" width="7.79" height="48.13"/>
        <path class="cls-1" d="M376.9,55.56c-.75,2.49-3.99,10.61-14.05,10.61-9.33,0-15.84-7.43-15.84-18.07s6.51-18.16,15.84-18.16,12.51,6.7,13.66,10.7l.31,1.07,6.96-2.89-.23-.84c-2.03-7.37-8.53-15.24-20.69-15.24-13.69,0-23.63,10.67-23.63,25.37s9.94,25.27,23.63,25.27c12.09,0,18.9-8.14,21.07-15.11l.27-.86-6.98-2.9-.32,1.05Z"/>
        <rect class="cls-1" x="393.6" y="23.99" width="7.79" height="48.13"/>
        <path class="cls-1" d="M397.49,0c-3.32,0-5.83,2.51-5.83,5.83s2.51,5.83,5.83,5.83,5.83-2.51,5.83-5.83-2.51-5.83-5.83-5.83Z"/>
        <path class="cls-1" d="M438.24,64.09v7.26l-.55.27c-.97.49-3.25.98-6.15.98-8.19,0-13.08-5.22-13.08-13.96v-27.45h-9.77v-7.21h4.48c4,0,5.49-1.57,5.49-5.78v-8.83h7.59v14.61h5.21v-.02h16.35v.02h1.58l15.5,32.68,14.67-32.68h8.58l-30.81,66.51h-8.49l11.98-25.36-16.61-33.96h-5.97v.02h-12v26.87c0,5.07,2.11,7.33,6.84,7.33,1.52,0,3.01-.36,3.76-.69l1.39-.62"/>
      </g>
    </g>
  </g>
</svg>